# xmcd CD database file
#
# Track frame offsets:
#	150
#	22243
#	43482
#	67867
#	94626
#	124302
#	150672
#	177538
#	198715
#	220723
#	251500
#	277577
#
# Disc length: 3971 seconds
#
# Revision: 0
# Processed by: cddbd v1.5.2PL0 Copyright (c) Steve Scherf et al.
# Submitted via: CDex 1.70beta2
#
DISCID=ad0f810c
DTITLE=Fred Liessens - Romantic Jazz - featuring Vibraphone and Orchestra
DYEAR=1997
DGENRE=Jazz
TTITLE0=Kennedy House
TTITLE1=Franso
TTITLE2=Herr Braun
TTITLE3=Psalm 91
TTITLE4=Take Care
TTITLE5=St. Mary's Road
TTITLE6=Plume
TTITLE7=Tante Therese
TTITLE8=Post Office
TTITLE9=Hand Picked Greens
TTITLE10=Montcalm
TTITLE11=Berthierville
EXTD=YEAR: 1997
EXTT0=
EXTT1=
EXTT2=
EXTT3=
EXTT4=
EXTT5=
EXTT6=
EXTT7=
EXTT8=
EXTT9=
EXTT10=
EXTT11=
PLAYORDER=
